<svg xmlns="http://www.w3.org/2000/svg" xml:space="preserve" x="0px" y="0px" style="enable-background:new 0 0 400 400" viewBox="0 0 400 400"><linearGradient id="a" x1="200" x2="200" y1="-2.66781" y2="411.65582" gradientUnits="userSpaceOnUse"><stop offset="0" style="stop-color:#867dda"/><stop offset="0.56477" style="stop-color:#87a9ed"/><stop offset="1" style="stop-color:#eaebff"/></linearGradient><path d="M200 6C92.857 6 6 92.857 6 200s86.857 194 194 194 194-86.857 194-194S307.143 6 200 6zm0 353.947c-43.583 0-83.087-17.44-111.935-45.71l26.548-26.467a85.48 85.48 0 0 0-46.53-41.446l-9.455-3.5 9.456-3.499a85.488 85.488 0 0 0 50.507-50.507l3.5-9.456 3.499 9.456a85.482 85.482 0 0 0 41.553 46.587L314.586 88.423c28.065 28.817 45.36 68.174 45.36 111.577 0 88.336-71.61 159.947-159.946 159.947z" style="fill:url(#a)"/><linearGradient id="b" x1="166.46277" x2="166.46277" y1="214.02348" y2="388.2106" gradientUnits="userSpaceOnUse"><stop offset="0" style="stop-color:#87a9ed"/><stop offset="0.79196" style="stop-color:#d5ddfb"/><stop offset="1" style="stop-color:#eaebff"/></linearGradient><path d="m166.463 253.66 1.849 4.997a45.176 45.176 0 0 0 26.69 26.69l4.998 1.85-4.997 1.849a45.176 45.176 0 0 0-26.691 26.69l-1.85 4.998-1.848-4.997a45.176 45.176 0 0 0-26.691-26.691l-4.997-1.85 4.997-1.848a45.176 45.176 0 0 0 26.69-26.691l1.85-4.997z" style="fill:url(#b)"/></svg>